<svg xmlns="http://www.w3.org/2000/svg" width="40" height="40" viewBox="0 0 40 40"><g><g><g/><g><path fill-opacity=".03" d="M13.193 36.667h13.614c5.898 0 9.86-3.793 9.86-9.442v-14.45c0-5.648-3.962-9.441-9.86-9.441H13.193c-5.896 0-9.86 3.795-9.86 9.443v14.448c0 5.648 3.964 9.442 9.86 9.442z"/></g><g><path d="M21.426 27.132l6.275-6.246c.471-.47.471-1.302 0-1.774l-6.275-6.246a1.25 1.25 0 0 0-1.765 1.773l4.128 4.112H13.197a1.25 1.25 0 1 0 0 2.5H23.79l-4.128 4.11a1.25 1.25 0 1 0 1.765 1.772z"/></g></g></g></svg>