<svg xmlns="http://www.w3.org/2000/svg" width="40" height="40" viewBox="0 0 40 40"><g><g><g/><g><path fill-opacity=".03" d="M26.803 36.663H13.19c-5.898 0-9.86-3.793-9.86-9.441v-14.45c0-5.649 3.962-9.442 9.86-9.442h13.613c5.897 0 9.86 3.795 9.86 9.443v14.449c0 5.648-3.963 9.441-9.86 9.441z"/></g><g><path d="M18.579 27.13l-6.275-6.246c-.472-.47-.472-1.302 0-1.774l6.275-6.246a1.25 1.25 0 0 1 1.765 1.773l-4.129 4.112h10.592a1.25 1.25 0 1 1 0 2.5H16.215l4.129 4.11a1.25 1.25 0 1 1-1.765 1.772z"/></g></g></g></svg>