<svg xmlns="http://www.w3.org/2000/svg" width="24" height="26" viewBox="0 0 24 26"><g><g><g opacity=".4"><path fill="#fff" d="M17.77 25.5H6.22c-3.363 0-6.1-2.711-6.1-6.044v-6.662c0-3.333 2.737-6.044 6.1-6.044h11.55c3.363 0 6.1 2.711 6.1 6.044v6.662c0 3.333-2.737 6.044-6.1 6.044"/></g><g><path fill="#fff" d="M16.699 10.5c-.514 0-.931-.405-.931-.903v-3.65c0-2.008-1.684-3.64-3.752-3.64-.952 0-1.951.37-2.663 1.053a3.559 3.559 0 0 0-1.11 2.57v3.667c0 .498-.418.903-.932.903s-.931-.405-.931-.903v-3.65a5.337 5.337 0 0 1 1.662-3.868C9.106 1.054 10.482.539 12.02.5c3.091 0 5.61 2.443 5.61 5.446v3.65c0 .5-.417.904-.931.904"/></g></g></g></svg>