<svg xmlns="http://www.w3.org/2000/svg" width="72" height="73" viewBox="0 0 72 73"><g><g><g/><g opacity=".4"><path fill="#fff" d="M36 88.3c8.284 0 15-1.343 15-3s-6.716-3-15-3c-8.284 0-15 1.343-15 3s6.716 3 15 3z"/></g><g><g/><g opacity=".4"><path fill="#fff" d="M38.929 9.64l6.68 13.424a3.335 3.335 0 0 0 2.514 1.798l15.003 2.185a3.363 3.363 0 0 1 2.209 1.29c.53.697.759 1.58.63 2.447A3.336 3.336 0 0 1 65 32.68l-10.87 10.538a3.167 3.167 0 0 0-.964 2.89l2.676 14.816a3.345 3.345 0 0 1-2.676 3.815 3.505 3.505 0 0 1-2.143-.342l-13.382-6.973a3.508 3.508 0 0 0-3.16 0l-13.383 6.973a3.429 3.429 0 0 1-4.597-1.342 3.393 3.393 0 0 1-.348-2.098l2.677-14.819a3.184 3.184 0 0 0-.964-2.893L6.996 32.714a3.253 3.253 0 0 1-.087-4.599l.087-.087a3.234 3.234 0 0 1 1.926-.945l15.004-2.188a3.341 3.341 0 0 0 2.514-1.801L32.88 9.64A3.32 3.32 0 0 1 35.93 7.8h.402a3.347 3.347 0 0 1 2.596 1.84z"/></g><g><path fill="#fff" d="M35.976 57.051a3.68 3.68 0 0 0-1.656.454L21.002 64.46a3.474 3.474 0 0 1-4.493-1.384 3.318 3.318 0 0 1-.347-2.08l2.66-14.788a3.309 3.309 0 0 0-.962-2.924L6.984 32.755a3.28 3.28 0 0 1 0-4.68 3.402 3.402 0 0 1 1.896-.952l15.016-2.21a3.248 3.248 0 0 0 2.51-1.802L32.933 9.49A3.317 3.317 0 0 1 36 7.805c-.024.892-.024 48.64-.024 49.246z"/></g></g></g></g></svg>