<svg xmlns="http://www.w3.org/2000/svg" width="72" height="73" viewBox="0 0 72 73"><g><g><g/><g><path fill="#fff" d="M25.595 9.11a20.668 20.668 0 0 1 21.104.175c6.43 3.996 10.337 11.127 10.3 18.8-.15 7.62-4.34 14.785-9.577 20.323a56.177 56.177 0 0 1-10.076 8.46 3.523 3.523 0 0 1-1.222.432 2.46 2.46 0 0 1-1.172-.356 55.545 55.545 0 0 1-14.515-13.642A27.838 27.838 0 0 1 15 27.703c-.004-7.686 4.04-14.784 10.595-18.593zm3.788 21.774c1.102 2.718 3.705 4.491 6.592 4.491a7.017 7.017 0 0 0 5.05-2.104 7.284 7.284 0 0 0 2.083-5.136c.01-2.94-1.722-5.598-4.386-6.73a7.038 7.038 0 0 0-7.782 1.558c-2.045 2.076-2.66 5.203-1.558 7.921z"/></g><g opacity=".4"><path fill="#fff" d="M36 88.3c8.284 0 15-1.343 15-3s-6.716-3-15-3c-8.284 0-15 1.343-15 3s6.716 3 15 3z"/></g></g></g></svg>