<svg xmlns="http://www.w3.org/2000/svg" width="72" height="73" viewBox="0 0 72 73"><g><g><g/><g opacity=".4"><path fill="#fff" d="M36 88.3c8.284 0 15-1.343 15-3s-6.716-3-15-3c-8.284 0-15 1.343-15 3s6.716 3 15 3z"/></g><g><g/><g opacity=".4"><path fill="#fff" d="M34.35 65.993a105.756 105.756 0 0 1-18.457-14.46 36.949 36.949 0 0 1-8.84-14.014c-3.318-10.325.545-22.125 11.328-25.628a18.323 18.323 0 0 1 16.643 2.95 18.349 18.349 0 0 1 16.642-2.95C62.45 15.394 66.338 27.194 63.02 37.52a36.954 36.954 0 0 1-8.788 14.013 106.72 106.72 0 0 1-18.457 14.46l-.725.475z"/></g><g><path fill="#fff" d="M35.028 66.466l-.685-.475a105.927 105.927 0 0 1-18.483-14.46A36.944 36.944 0 0 1 6.97 37.518c-3.292-10.325.57-22.125 11.354-25.628 5.692-1.788 11.964-.69 16.705 2.981z"/></g><g><path fill="#fff" d="M53.175 31.464a2.096 2.096 0 0 1-1.509-.81 2.386 2.386 0 0 1-.487-1.724c.063-2.049-1.102-3.913-2.9-4.639-1.14-.311-1.83-1.546-1.545-2.763.27-1.198 1.392-1.942 2.52-1.673.142.024.28.075.404.152 3.604 1.387 5.937 5.12 5.752 9.202a2.355 2.355 0 0 1-.669 1.633c-.42.425-.986.65-1.566.622z"/></g></g></g></g></svg>